# xmcd
#
# Track frame offsets:
#	182
#	33810
#	58345
#	68660
#	106775
#	144712
#	160717
#	176805
#	192127
#
# Disc length: 2753 seconds
#
# Revision: 1
# Processed by: cddbd v1.5.1PL0 Copyright (c) Steve Scherf et al.
# Submitted via: CDex 1.50Beta5
#
DISCID=760abf09
DTITLE=フランツ・リスト室内管弦楽団 - のほほん・くらしっく その1 おはよう「のほほんとした朝のために」
DYEAR=1999
DGENRE=
TTITLE0=フランツ・リスト室内管弦楽団/パッヘルベルのカノン
TTITLE1=フランツ・リスト室内管弦楽団/G線上のアリア
TTITLE2=ハルヤンネ(ヨウコ)/シチリアーノ
TTITLE3=フランツ・リスト室内管弦楽団/アルビノーニのアダージョ
TTITLE4=カツァリス(シブリアン)/ピアノ協奏曲第1番
TTITLE5=クレベンジャー(デール)/ラルゴ
TTITLE6=フランツ・リスト室内管弦楽団/ボッケリーニのメヌエット
TTITLE7=フランツ・リスト室内管弦楽団/精霊の踊り*オルフェオとエウリディーチェ
TTITLE8=ハルヤンネ(ヨウコ)/主よ、人の望みの喜びよ
EXTD=
EXTT0=
EXTT1=
EXTT2=
EXTT3=
EXTT4=
EXTT5=
EXTT6=
EXTT7=
EXTT8=
PLAYORDER=
